<?xml version="1.0" encoding="UTF-8" standalone="no"?>
<!-- Created with Inkscape (http://www.inkscape.org/) -->

<svg
   xmlns:dc="http://purl.org/dc/elements/1.1/"
   xmlns:cc="http://creativecommons.org/ns#"
   xmlns:rdf="http://www.w3.org/1999/02/22-rdf-syntax-ns#"
   xmlns:svg="http://www.w3.org/2000/svg"
   xmlns="http://www.w3.org/2000/svg"
   xmlns:xlink="http://www.w3.org/1999/xlink"
   xmlns:sodipodi="http://sodipodi.sourceforge.net/DTD/sodipodi-0.dtd"
   xmlns:inkscape="http://www.inkscape.org/namespaces/inkscape"
   width="300"
   height="600"
   id="svg2"
   sodipodi:version="0.32"
   inkscape:version="0.48.3.1 r9886"
   version="1.0"
   sodipodi:docname="logo.svg"
   inkscape:output_extension="org.inkscape.output.svg.inkscape"
   inkscape:export-filename="/home/kfickel/JAVA-Projekte/JavaJumper/res/img/loader/champany.png"
   inkscape:export-xdpi="90"
   inkscape:export-ydpi="90">
  <defs
     id="defs4">
    <linearGradient
       id="linearGradient3078">
      <stop
         style="stop-color:#008000;stop-opacity:1;"
         offset="0"
         id="stop3080" />
      <stop
         style="stop-color:#2c9200;stop-opacity:1;"
         offset="1"
         id="stop3082" />
    </linearGradient>
    <linearGradient
       id="linearGradient3707">
      <stop
         style="stop-color:#00030d;stop-opacity:1;"
         offset="0"
         id="stop3709" />
      <stop
         style="stop-color:#000f45;stop-opacity:1;"
         offset="1"
         id="stop3711" />
    </linearGradient>
    <linearGradient
       id="linearGradient3697">
      <stop
         style="stop-color:#003180;stop-opacity:1;"
         offset="0"
         id="stop3699" />
      <stop
         style="stop-color:#001047;stop-opacity:1;"
         offset="1"
         id="stop3701" />
    </linearGradient>
    <linearGradient
       id="linearGradient3689">
      <stop
         style="stop-color:#003180;stop-opacity:1;"
         offset="0"
         id="stop3691" />
      <stop
         style="stop-color:#008080;stop-opacity:1;"
         offset="1"
         id="stop3693" />
    </linearGradient>
    <linearGradient
       id="linearGradient3681">
      <stop
         style="stop-color:#008000;stop-opacity:1;"
         offset="0"
         id="stop3683" />
      <stop
         style="stop-color:#00614c;stop-opacity:1;"
         offset="1"
         id="stop3685" />
    </linearGradient>
    <linearGradient
       id="linearGradient3673">
      <stop
         style="stop-color:#00ff00;stop-opacity:1;"
         offset="0"
         id="stop3675" />
      <stop
         style="stop-color:#00aa00;stop-opacity:1;"
         offset="1"
         id="stop3677" />
    </linearGradient>
    <linearGradient
       id="linearGradient3665">
      <stop
         style="stop-color:#ffff00;stop-opacity:1;"
         offset="0"
         id="stop3667" />
      <stop
         style="stop-color:#aeff00;stop-opacity:1;"
         offset="1"
         id="stop3669" />
    </linearGradient>
    <linearGradient
       id="linearGradient3657">
      <stop
         style="stop-color:#ff0000;stop-opacity:1;"
         offset="0"
         id="stop3659" />
      <stop
         style="stop-color:#ff5400;stop-opacity:1;"
         offset="1"
         id="stop3661" />
    </linearGradient>
    <linearGradient
       id="linearGradient3649">
      <stop
         style="stop-color:#ff6600;stop-opacity:1;"
         offset="0"
         id="stop3651" />
      <stop
         style="stop-color:#ffe800;stop-opacity:1;"
         offset="1"
         id="stop3653" />
    </linearGradient>
    <linearGradient
       id="linearGradient3635">
      <stop
         style="stop-color:#000000;stop-opacity:1;"
         offset="0"
         id="stop3637" />
      <stop
         id="stop3645"
         offset="0.5841974"
         style="stop-color:#222222;stop-opacity:1;" />
      <stop
         id="stop3643"
         offset="0.59796941"
         style="stop-color:#444444;stop-opacity:1;" />
      <stop
         style="stop-color:#898989;stop-opacity:1;"
         offset="1"
         id="stop3639" />
    </linearGradient>
    <linearGradient
       id="linearGradient3627">
      <stop
         style="stop-color:#000000;stop-opacity:1;"
         offset="0"
         id="stop3629" />
      <stop
         style="stop-color:#000000;stop-opacity:0;"
         offset="1"
         id="stop3631" />
    </linearGradient>
    <inkscape:perspective
       sodipodi:type="inkscape:persp3d"
       inkscape:vp_x="0 : 526.18109 : 1"
       inkscape:vp_y="0 : 1000 : 0"
       inkscape:vp_z="744.09448 : 526.18109 : 1"
       inkscape:persp3d-origin="372.04724 : 350.78739 : 1"
       id="perspective10" />
    <inkscape:perspective
       id="perspective2390"
       inkscape:persp3d-origin="372.04724 : 350.78739 : 1"
       inkscape:vp_z="744.09448 : 526.18109 : 1"
       inkscape:vp_y="0 : 1000 : 0"
       inkscape:vp_x="0 : 526.18109 : 1"
       sodipodi:type="inkscape:persp3d" />
    <linearGradient
       inkscape:collect="always"
       xlink:href="#linearGradient3627"
       id="linearGradient3633"
       x1="28.650671"
       y1="667.42291"
       x2="497.59879"
       y2="667.42291"
       gradientUnits="userSpaceOnUse" />
    <linearGradient
       inkscape:collect="always"
       xlink:href="#linearGradient3635"
       id="linearGradient3641"
       x1="28.650671"
       y1="630.74878"
       x2="28.650671"
       y2="704.09705"
       gradientUnits="userSpaceOnUse"
       gradientTransform="translate(4,6)" />
    <linearGradient
       inkscape:collect="always"
       xlink:href="#linearGradient3649"
       id="linearGradient3655"
       x1="214.1875"
       y1="213.41252"
       x2="403.46875"
       y2="213.41252"
       gradientUnits="userSpaceOnUse" />
    <linearGradient
       inkscape:collect="always"
       xlink:href="#linearGradient3657"
       id="linearGradient3663"
       x1="41.588257"
       y1="173.63348"
       x2="268.15521"
       y2="173.63348"
       gradientUnits="userSpaceOnUse" />
    <linearGradient
       inkscape:collect="always"
       xlink:href="#linearGradient3665"
       id="linearGradient3671"
       x1="336.64618"
       y1="214.38345"
       x2="487.45502"
       y2="214.38345"
       gradientUnits="userSpaceOnUse" />
    <linearGradient
       inkscape:collect="always"
       xlink:href="#linearGradient3673"
       id="linearGradient3679"
       x1="480.04443"
       y1="437.64651"
       x2="621.00781"
       y2="437.64651"
       gradientUnits="userSpaceOnUse" />
    <linearGradient
       inkscape:collect="always"
       xlink:href="#linearGradient3681"
       id="linearGradient3687"
       x1="597.35272"
       y1="496.68106"
       x2="732.16534"
       y2="572.39539"
       gradientUnits="userSpaceOnUse" />
    <linearGradient
       inkscape:collect="always"
       xlink:href="#linearGradient3689"
       id="linearGradient3695"
       x1="509.76492"
       y1="694.05316"
       x2="728.4895"
       y2="694.05316"
       gradientUnits="userSpaceOnUse" />
    <linearGradient
       inkscape:collect="always"
       xlink:href="#linearGradient3697"
       id="linearGradient3703"
       x1="614.52594"
       y1="604.06915"
       x2="614.52594"
       y2="725.02844"
       gradientUnits="userSpaceOnUse" />
    <linearGradient
       inkscape:collect="always"
       xlink:href="#linearGradient3707"
       id="linearGradient3713"
       x1="582.56421"
       y1="664.20898"
       x2="582.56421"
       y2="706.65277"
       gradientUnits="userSpaceOnUse" />
  </defs>
  <sodipodi:namedview
     id="base"
     pagecolor="#ffffff"
     bordercolor="#666666"
     borderopacity="1.0"
     inkscape:pageopacity="0"
     inkscape:pageshadow="2"
     inkscape:zoom="0.49497475"
     inkscape:cx="-421.23512"
     inkscape:cy="282.33183"
     inkscape:document-units="px"
     inkscape:current-layer="layer1"
     showgrid="false"
     inkscape:window-width="1366"
     inkscape:window-height="713"
     inkscape:window-x="0"
     inkscape:window-y="27"
     showguides="true"
     inkscape:guide-bbox="true"
     inkscape:window-maximized="1" />
  <metadata
     id="metadata7">
    <rdf:RDF>
      <cc:Work
         rdf:about="">
        <dc:format>image/svg+xml</dc:format>
        <dc:type
           rdf:resource="http://purl.org/dc/dcmitype/StillImage" />
        <dc:title></dc:title>
      </cc:Work>
    </rdf:RDF>
  </metadata>
  <g
     inkscape:label="Ebene 1"
     inkscape:groupmode="layer"
     id="layer1"
     transform="translate(-20.171479,-186.9404)">
    <path
       style="opacity:1;fill:#ffffff;fill-opacity:1"
       d="M 0 0 L 0 600 L 83.15625 600 C 82.755258 596.66606 83.904738 593.11165 87.53125 591.625 C 85.88286 580.45592 87.15642 569.12925 85.875 558.03125 C 69.734128 558.07894 51.498155 556.49271 35.84375 557.5 C 33.213026 557.12425 32.572484 556.21231 33.125 555 C 32.237948 555.60571 31.342873 556.22994 30.46875 556.84375 C 30.314759 556.95167 30.154452 557.00165 29.96875 557.03125 C 25.475853 557.75274 21.908393 557.56419 19.09375 556.53125 C 16.279107 555.49831 14.267845 553.57099 13.03125 551.125 C 10.558058 546.23302 10.865451 539.4543 11.9375 531.96875 C 13.009549 524.4832 14.936902 516.27792 16.09375 508.78125 C 17.250599 501.28458 17.557567 494.49844 15.8125 490.03125 C 15.514227 489.30989 16.09697 488.3757 16.875 488.3125 C 17.411119 488.26646 17.96708 488.62125 18.15625 489.125 C 20.236581 494.45043 19.709219 501.52272 18.53125 509.15625 C 17.353281 516.78979 15.455348 524.98721 14.40625 532.3125 C 13.357152 539.6378 13.256785 546.08866 15.25 550.03125 C 16.246608 552.00254 17.676948 553.38915 19.9375 554.21875 C 22.148725 555.03025 25.229858 555.21844 29.3125 554.59375 C 30.141956 554.01329 30.945788 553.44544 31.78125 552.875 C 29.211456 553.37331 27.194855 552.33879 26.4375 548.4375 C 18.226355 501.91763 41.389073 535.75811 82.3125 471.8125 C 83.35573 471.64567 84.38989 471.5675 85.375 471.5625 C 94.89773 471.51456 101.30025 478.86708 96.6875 490.1875 C 89.47218 503.17057 82.38376 515.10602 106.90625 515.375 C 142.56129 491.9748 208.087 508.02719 245.34375 536.53125 C 266.75251 553.0279 283.04007 573.78442 287.59375 600 L 300 600 L 300 0 L 0 0 z M 160.25 203.03125 C 160.7753 203.03125 161.24949 203.10615 162.125 203.28125 L 160.0625 206.53125 C 158.72006 206.18105 158.13377 206.0625 157.375 206.0625 C 155.27378 206.0625 154.00283 207.40422 152.71875 210.90625 C 151.49304 214.52501 146.59375 235.66764 146.59375 237.59375 C 146.59375 238.46926 146.93931 239.09375 147.40625 239.09375 C 147.93155 239.09375 149.57106 238.1867 152.78125 235.96875 C 153.07309 235.79365 153.64748 235.37319 154.40625 234.90625 L 154.1875 236.71875 C 149.34303 240.22078 144.24637 243.3125 143.3125 243.3125 C 142.49536 243.3125 142.03125 242.66734 142.03125 241.5 C 142.03125 240.44939 142.20816 238.74043 142.5 237.28125 C 136.37145 241.71715 133.79648 243.3125 132.6875 243.3125 C 131.63689 243.3125 130.46875 241.03045 130.46875 238.8125 C 130.46875 234.78517 133.10927 226.55757 135.09375 224.28125 C 137.42843 221.7131 142.44062 218.5625 144.25 218.5625 C 144.71694 218.5625 145.60564 218.67278 146.65625 218.90625 C 146.88972 218.03074 147.06663 217.26472 147.125 217.03125 C 148.64254 211.01944 148.79626 210.61825 151.65625 207.875 C 153.29053 206.35746 155.29082 204.84839 156.75 204.03125 C 158.09244 203.27248 158.84919 203.03125 160.25 203.03125 z M 166.96875 206.59375 C 167.08548 206.88559 167.22702 207.11028 167.34375 207.34375 C 167.81069 208.45273 167.86855 208.51834 168.21875 209.21875 C 168.33548 209.39385 168.61855 209.86209 168.96875 210.5625 C 166.98427 212.08004 166.8489 212.20121 165.15625 213.71875 C 163.87217 211.851 163.37732 210.90908 162.96875 209.625 C 163.20222 209.50827 163.42278 209.33135 163.65625 209.15625 C 164.18155 208.80605 164.58316 208.51472 164.875 208.28125 C 165.45867 207.81431 165.92278 207.48347 166.15625 207.25 C 166.33135 207.0749 166.67691 206.82722 166.96875 206.59375 z M 72.15625 208.875 C 72.97339 208.875 73.551408 208.91452 74.71875 209.03125 L 72.4375 212.3125 C 70.277917 212.19577 69.758772 212.1875 69 212.1875 C 66.548581 212.1875 65.031757 213.29858 64.15625 215.75 C 63.397478 218.02632 62.567646 221.23123 60.875 228.46875 C 59.415822 234.53893 58.999707 235.29626 55.90625 238.15625 L 54.34375 239.6875 L 65.375 239.6875 C 75.414144 239.74587 76.049888 239.40254 79.84375 231.40625 L 80.5 232.5 C 79.624493 234.71795 77.794155 238.75131 77.09375 240.09375 C 76.043142 242.25333 74.78509 242.90625 71.75 242.90625 C 70.232455 242.90625 69.822207 242.90444 60.25 242.4375 C 55.814099 242.2624 52.830045 242.125 51.3125 242.125 C 49.853322 242.125 48.395371 242.19577 45.59375 242.3125 C 46.469257 241.20352 46.80786 240.78589 47.625 239.96875 C 48.267038 240.02712 48.970563 240.03125 49.4375 240.03125 C 53.114628 240.03125 54.642838 237.87724 56.21875 230.40625 C 58.495067 219.54997 59.483761 216.85586 62.34375 213.9375 C 64.678435 211.60282 67.486588 209.62732 69.0625 209.21875 C 70.054741 208.98528 71.047275 208.875 72.15625 208.875 z M 98.46875 218.5625 C 101.56221 218.5625 103.71875 220.78568 103.71875 223.9375 C 103.71875 227.96483 101.86593 233.69193 99.53125 236.84375 C 98.480642 238.24456 96.543356 239.67822 93.625 241.3125 C 90.940113 242.71331 89.321779 243.3125 87.6875 243.3125 C 84.594043 243.3125 82.59375 241.02914 82.59375 237.46875 C 82.59375 231.69041 85.233255 225.61412 88.96875 222.8125 C 92.41241 220.24435 96.134065 218.5625 98.46875 218.5625 z M 120.90625 218.5625 C 123.41604 218.5625 125.44838 218.79546 128.25 219.4375 C 127.31613 220.48811 127.20454 220.65574 126.5625 221.53125 C 124.46128 229.29408 123.0625 235.73246 123.0625 237.25 C 123.0625 237.95041 123.37268 238.40625 123.78125 238.40625 C 124.36492 238.40625 125.21622 237.88711 129.59375 234.96875 L 129.53125 236.65625 C 127.3133 238.29053 125.9739 239.23477 124.28125 240.34375 C 119.61188 243.32047 119.63791 243.3125 118.9375 243.3125 C 118.35383 243.3125 118 242.85252 118 242.09375 C 118 241.39334 118.29133 239.55989 118.875 236.875 C 111.57911 242.12804 109.62783 243.3125 108.34375 243.3125 C 106.88457 243.3125 105.96875 241.42662 105.96875 238.625 C 105.96875 233.89726 108.40292 226.04517 110.5625 223.59375 C 111.32127 222.77661 113.77378 220.94446 115.875 219.71875 C 117.39254 218.78488 118.5132 218.5625 120.90625 218.5625 z M 165.125 218.5625 C 165.53357 218.5625 165.8125 218.80605 165.8125 219.15625 C 165.8125 219.62319 165.22672 221.93041 162.25 234.1875 C 161.8998 235.47158 161.71875 236.60383 161.71875 237.1875 C 161.71875 238.17974 162.13921 238.8125 162.78125 238.8125 C 163.54002 238.8125 163.64262 238.75797 169.1875 235.78125 L 168.96875 237.40625 C 168.38508 237.75645 167.86905 238.11441 167.34375 238.40625 C 166.23477 239.16502 165.10898 239.86209 164 240.5625 C 160.90654 242.54698 159.33599 243.3125 158.34375 243.3125 C 157.52661 243.3125 156.9375 242.36956 156.9375 240.96875 C 156.9375 239.50957 156.94425 239.52674 159.6875 229.3125 C 160.56301 225.98557 160.75 225.16502 160.75 224.40625 C 160.75 223.70584 160.49819 223.34375 160.03125 223.34375 C 159.50595 223.34375 159.22491 223.476 155.78125 225.34375 L 155.90625 223.6875 C 160.69235 220.47731 164.13276 218.5625 165.125 218.5625 z M 179.3125 218.5625 C 179.72107 218.5625 180.0625 218.90393 180.0625 219.3125 C 180.0625 219.77944 179.18155 223.44889 178.65625 225.375 L 186.65625 220.4375 C 188.75747 219.09506 190.06199 218.5625 190.9375 218.5625 C 191.69627 218.5625 192.09375 218.92046 192.09375 219.5625 C 192.09375 219.97107 192.087 219.97557 189.34375 229.78125 C 188.23477 233.80858 187.84375 235.71179 187.84375 236.9375 C 187.84375 237.87137 188.19758 238.53125 188.78125 238.53125 C 189.36492 238.53125 189.56954 238.38943 195.40625 235.0625 L 195 236.71875 C 190.9143 239.75384 186.90364 242.24304 184.21875 243.46875 C 183.57671 242.41814 183.34375 241.66089 183.34375 240.84375 C 183.34375 239.73477 183.55967 238.75717 184.84375 233.5625 C 186.5364 226.90865 187 224.68801 187 223.8125 C 187 223.34556 186.78357 223.0625 186.375 223.0625 C 185.55786 223.0625 185.38964 223.10775 178.09375 227.71875 L 174.65625 241.4375 L 170.25 243.125 C 170.65857 241.49072 170.97702 240.37732 171.09375 239.96875 L 172.4375 235.25 C 173.89668 229.93859 175 225.10071 175 223.875 C 175 223.40806 174.68982 223.0625 174.28125 223.0625 C 173.75595 223.0625 173.51675 223.11985 169.78125 224.8125 L 170.15625 223.28125 C 174.47542 220.7131 178.67046 218.5625 179.3125 218.5625 z M 220.0625 218.625 C 218.19475 221.60172 218.11311 221.58316 217.0625 221.875 C 217.00413 222.2252 216.89798 222.63095 216.78125 223.15625 L 215.90625 226.4375 C 215.67278 227.37137 215.38972 228.49717 215.15625 229.78125 L 212.21875 242.90625 C 210.99304 248.68459 210.41604 249.90292 207.90625 252.0625 C 203.99565 255.44779 199.80727 256.96875 194.4375 256.96875 C 190.0016 256.96875 187.40625 255.75333 187.40625 253.59375 C 187.40625 251.95947 188.76914 250.00565 191.6875 247.4375 L 198.40625 241.6875 C 197.47238 240.40342 197.09375 239.33418 197.09375 237.875 C 197.09375 234.31461 199.21774 227.24507 200.96875 224.96875 C 202.19446 223.39284 204.16713 221.78226 206.96875 220.03125 C 208.71976 218.98064 209.72086 218.80837 213.28125 218.75 C 213.92329 218.75 215.2764 218.74173 220.0625 218.625 z M 117.53125 221.25 C 115.54677 221.25 114.24456 222.47731 112.84375 225.6875 C 111.38457 229.01443 110.46875 232.98789 110.46875 235.90625 C 110.46875 237.774 111.03488 238.8125 111.96875 238.8125 C 113.01936 238.8125 114.77509 237.82229 118.21875 235.3125 L 119.34375 234.5625 C 119.63559 233.51189 119.78538 232.79184 119.84375 232.5 C 120.19395 230.98246 120.49355 229.52168 120.84375 228.0625 C 120.90212 227.77066 121.30141 226.4359 122.46875 222 C 120.36753 221.53306 118.58186 221.25 117.53125 221.25 z M 95.4375 221.3125 C 91.351802 221.3125 87.09375 228.29191 87.09375 235.0625 C 87.09375 238.38943 88.606948 240.5625 91 240.5625 C 93.21795 240.5625 95.334471 238.76443 96.96875 235.4375 C 98.427928 232.57751 99.21875 229.54517 99.21875 227.09375 C 99.21875 223.59172 97.772185 221.3125 95.4375 221.3125 z M 142.6875 221.3125 C 139.71078 221.3125 137.4114 224.22992 135.71875 230.125 C 135.01834 232.69315 134.6875 234.91764 134.6875 236.84375 C 134.6875 238.5364 135.08911 239.40625 135.90625 239.40625 C 136.72339 239.40625 138.00755 238.62703 142.96875 235.125 L 145.71875 222.875 C 144.49304 221.70766 143.73811 221.3125 142.6875 221.3125 z M 212.75 221.84375 C 211.99123 221.90212 211.28357 221.875 210.875 221.875 C 206.6142 221.875 205.38609 222.48195 204.21875 224.875 C 202.99304 227.67662 201.59375 232.73427 201.59375 234.71875 C 201.59375 236.11956 202.01189 237.07439 203.0625 238.125 C 207.96534 234.44787 209.36391 233.38377 210.53125 232.625 C 211.29002 229.76501 211.94345 227.50515 212.46875 225.8125 C 212.99405 224.41169 213.38225 223.87369 215.25 222.53125 C 215.54184 222.35615 215.89566 222.07722 216.1875 221.84375 L 214.3125 221.84375 L 212.75 221.84375 z M 210 234.71875 C 193.77394 247.15095 192.21875 248.60695 192.21875 251 C 192.21875 252.86775 194.23739 253.9375 198.03125 253.9375 C 201.47491 253.9375 203.87217 253.17793 205.15625 251.71875 C 206.20686 250.60977 206.74123 249.25203 207.5 245.75 L 210 234.71875 z M 225.90625 235.0625 C 226.60666 236.28821 226.90393 236.76421 227.3125 237.40625 C 227.37087 237.46462 227.95584 238.41401 228.65625 239.40625 C 227.08034 241.04053 226.5617 241.42822 224.34375 243.0625 C 223.23477 241.72006 222.06069 239.87783 221.59375 238.59375 L 223.15625 237.34375 L 223.6875 236.9375 C 224.15444 236.52893 224.62681 236.13145 225.09375 235.78125 C 225.44395 235.48941 225.73115 235.2376 225.90625 235.0625 z M 238.78125 235.0625 C 239.48166 236.28821 239.77893 236.76421 240.1875 237.40625 C 240.24587 237.46462 240.83084 238.41401 241.53125 239.40625 C 239.95534 241.04053 239.4367 241.42822 237.21875 243.0625 C 236.10977 241.72006 234.93569 239.87783 234.46875 238.59375 L 236.03125 237.34375 L 236.5625 236.9375 C 237.02944 236.52893 237.50181 236.13145 237.96875 235.78125 C 238.31895 235.48941 238.60615 235.2376 238.78125 235.0625 z M 251.65625 235.0625 C 252.35666 236.28821 252.65393 236.76421 253.0625 237.40625 C 253.12087 237.46462 253.70584 238.41401 254.40625 239.40625 C 252.83034 241.04053 252.3117 241.42822 250.09375 243.0625 C 248.98477 241.72006 247.81069 239.87783 247.34375 238.59375 L 248.9375 237.34375 L 249.4375 236.9375 C 249.90444 236.52893 250.37681 236.13145 250.84375 235.78125 C 251.19395 235.48941 251.48115 235.2376 251.65625 235.0625 z M 60.1875 513.71875 C 56.386068 513.71875 53.28125 516.90088 53.28125 520.8125 C 53.28125 524.72412 56.386068 527.875 60.1875 527.875 C 63.988928 527.875 67.0625 524.72412 67.0625 520.8125 C 67.0625 516.90088 63.988928 513.71875 60.1875 513.71875 z M 56.78125 519 C 58.213674 519 59.375 520.21356 59.375 521.6875 C 59.375 523.16144 58.213674 524.34375 56.78125 524.34375 C 55.348825 524.34375 54.1875 523.16144 54.1875 521.6875 C 54.1875 520.21356 55.348825 519 56.78125 519 z M 100.75 557.96875 C 99.54043 569.08111 100.75605 580.3878 99.0625 591.5625 C 102.82539 593.06472 104.17365 596.62654 103.9375 600 L 173.09375 600 C 172.84967 596.70317 174.07271 593.30728 177.53125 591.84375 C 175.90583 580.47528 177.10108 576.08331 175.90625 564.78125 C 152.7078 567.17015 125.61717 566.14319 100.75 557.96875 z M 190.84375 563.46875 C 189.49861 575.1772 190.7925 579.99778 189.0625 591.78125 C 192.65183 593.26041 193.93694 596.66546 193.71875 600 L 266.3125 600 C 260.45043 583.77296 248.4326 572.87484 237.78125 569.34375 C 223.95608 566.18789 206.19203 564.06038 190.84375 563.46875 z M 183.15625 576.21875 C 183.03383 584.00467 182.88808 591.85306 183.03125 600 L 183.28125 600 C 183.41982 591.85632 183.28308 584.00471 183.15625 576.21875 z M 93.15625 576.4375 C 93.031979 584.14362 92.907017 591.92398 93.0625 600 L 93.28125 600 C 93.437813 591.92698 93.283706 584.14334 93.15625 576.4375 z "
       transform="translate(20.171479,186.9404)"
       id="rect3036" />
  </g>
</svg>
